<svg width="18" height="18" xmlns="http://www.w3.org/2000/svg"><path d="M2.7 9a.9.9 0 0 0-.9-.9H.9a.9.9 0 0 0 0 1.8h.9a.9.9 0 0 0 .9-.9Zm.576 4.5-.639.639a.9.9 0 0 0 0 1.269.9.9 0 0 0 1.269 0l.639-.639A.9.9 0 0 0 3.276 13.5ZM9 2.7a.9.9 0 0 0 .9-.9V.9a.9.9 0 0 0-1.8 0v.9a.9.9 0 0 0 .9.9Zm5.094 2.106a.9.9 0 0 0 .63-.261l.639-.639a.9.9 0 1 0-1.269-1.269l-.594.639a.9.9 0 0 0 0 1.269.9.9 0 0 0 .594.261Zm-10.8-.261a.9.9 0 0 0 1.269 0 .9.9 0 0 0 0-1.269l-.639-.639a.904.904 0 1 0-1.287 1.269l.657.639ZM17.1 8.1h-.9a.9.9 0 1 0 0 1.8h.9a.9.9 0 1 0 0-1.8Zm-2.376 5.4a.9.9 0 0 0-1.224 1.224l.639.639a.9.9 0 0 0 1.269 0 .9.9 0 0 0 0-1.269l-.684-.594ZM9 4.05A4.95 4.95 0 1 0 13.95 9 4.959 4.959 0 0 0 9 4.05Zm0 8.1a3.15 3.15 0 1 1 0-6.3 3.15 3.15 0 0 1 0 6.3Zm0 3.15a.9.9 0 0 0-.9.9v.9a.9.9 0 1 0 1.8 0v-.9a.9.9 0 0 0-.9-.9Z" fill="#5A6069"/></svg>