<svg width="16" height="15" xmlns="http://www.w3.org/2000/svg"><path d="M1.38.027a.795.795 0 0 1 .769.206L14.815 12.9a.792.792 0 0 1 0 1.124.792.792 0 0 1-1.124 0L9.234 9.567a2.77 2.77 0 0 1-3.753-3.753L1.024 1.357a.795.795 0 0 1 .357-1.33Zm.998 3.832 1.156 1.116a10.846 10.846 0 0 0-1.773 2.153c.696 1.117 2.929 4.038 6.333 3.959a6.127 6.127 0 0 0 1.346-.198l1.25 1.25a7.505 7.505 0 0 1-2.556.53h-.198c-4.663 0-7.331-4.282-7.83-5.145a.792.792 0 0 1 0-.792A12.58 12.58 0 0 1 2.378 3.86Zm5.328-2.272c4.726-.143 7.52 4.267 8.028 5.145.15.24.163.542.031.792a12.58 12.58 0 0 1-2.304 2.874l-1.195-1.116a10.846 10.846 0 0 0 1.813-2.154c-.705-1.116-2.937-4.045-6.333-3.958a6.127 6.127 0 0 0-1.346.198L5.149 2.117a7.505 7.505 0 0 1 2.557-.53Zm-.974 5.486v.055c0 .656.532 1.188 1.188 1.188l.047-.008-1.235-1.235Z" fill="#7C8187"/></svg>